<svg xmlns="http://www.w3.org/2000/svg" version="1.1" xmlns:xlink="http://www.w3.org/1999/xlink" xmlns:svgjs="http://svgjs.dev/svgjs" width="100" height="100"><svg width="100" height="100" viewBox="0 0 100 100" fill="none" xmlns="http://www.w3.org/2000/svg">
<g clip-path="url(#clip0_86_9)">
<rect x="2" y="2" width="96" height="96" rx="24" fill="#7F22FE"></rect>
<path d="M41.2585 62.9609V61.6506C41.2585 58.0284 41.5568 55.1413 42.1534 52.9893C42.7713 50.8374 43.6662 49.1115 44.8381 47.8118C46.0099 46.4908 47.4375 45.2869 49.1207 44.2003C50.4631 43.348 51.6563 42.4851 52.7003 41.6115C53.7656 40.7166 54.6072 39.7578 55.2251 38.7351C55.843 37.7124 56.152 36.5511 56.152 35.2514C56.152 33.9943 55.8537 32.8864 55.2571 31.9276C54.6605 30.9687 53.8402 30.2337 52.7962 29.7223C51.7734 29.1896 50.6335 28.9233 49.3764 28.9233C48.1193 28.9233 46.9368 29.2109 45.8288 29.7862C44.7422 30.3615 43.8473 31.1818 43.1442 32.2472C42.4624 33.2912 42.1108 34.5589 42.0895 36.0504H27.3878C27.4517 31.576 28.4851 27.9112 30.4879 25.0561C32.5121 22.201 35.1861 20.0916 38.5099 18.728C41.8338 17.343 45.4986 16.6506 49.5043 16.6506C53.8935 16.6506 57.7926 17.3324 61.2017 18.696C64.6321 20.0597 67.3274 22.0732 69.2876 24.7365C71.2479 27.3999 72.228 30.6598 72.228 34.5163C72.228 37.0518 71.8018 39.2891 70.9496 41.228C70.0973 43.1669 68.9041 44.8821 67.37 46.3736C65.8572 47.8437 64.0781 49.1861 62.0327 50.4006C60.4347 51.3381 59.103 52.3182 58.0376 53.3409C56.9936 54.3636 56.2053 55.5355 55.6726 56.8565C55.1399 58.1562 54.8736 59.7543 54.8736 61.6506V62.9609H41.2585ZM48.3217 83.9268C46.0206 83.9268 44.0497 83.1172 42.4091 81.4979C40.7898 79.8786 39.9908 77.9183 40.0121 75.6172C39.9908 73.3587 40.7898 71.4304 42.4091 69.8324C44.0497 68.2131 46.0206 67.4034 48.3217 67.4034C50.5163 67.4034 52.4446 68.2131 54.1065 69.8324C55.7685 71.4304 56.6101 73.3587 56.6314 75.6172C56.6101 77.1513 56.2053 78.5469 55.4169 79.804C54.6499 81.0611 53.6378 82.0625 52.3807 82.8082C51.1449 83.554 49.7919 83.9268 48.3217 83.9268Z" fill="white"></path>
</g>
<defs>
<clipPath id="SvgjsClipPath1011">
<rect width="100" height="100" fill="white"></rect>
</clipPath>
</defs>
</svg><style>@media (prefers-color-scheme: light) { :root { filter: none; } }
@media (prefers-color-scheme: dark) { :root { filter: none; } }
</style></svg>